<svg width="23" height="23" viewBox="0 0 23 23" fill="none" xmlns="http://www.w3.org/2000/svg">
<g clip-path="url(#clip0_6_183)" filter="url(#filter0_d_6_183)">
<path d="M18.6064 11.5719L15.5703 9.5472C15.1851 9.29232 14.6686 9.37619 14.3838 9.73991L13.4994 10.877C13.3857 11.0269 13.1791 11.0703 13.0147 10.979L12.8465 10.8862C12.2888 10.5823 11.5949 10.2038 10.1969 8.80531C8.79884 7.40676 8.41965 6.71236 8.11568 6.15571L8.02344 5.98748C7.93084 5.82309 7.97349 5.61561 8.12341 5.50105L9.25973 4.61694C9.62331 4.33207 9.70729 3.81576 9.45271 3.43036L7.42801 0.394309C7.1671 0.00184727 6.64364 -0.115967 6.23973 0.126838L4.97016 0.889469C4.57125 1.12399 4.27859 1.50379 4.15354 1.9493C3.69637 3.61505 4.0403 6.48988 8.27518 10.7253C11.6439 14.0938 14.1518 14.9996 15.8756 14.9996C16.2723 15.0013 16.6674 14.9497 17.0504 14.8462C17.496 14.7213 17.8759 14.4286 18.1102 14.0295L18.8736 12.7607C19.1168 12.3567 18.999 11.833 18.6064 11.5719ZM18.4429 12.5042L17.6813 13.7738C17.513 14.0618 17.2398 14.2736 16.9189 14.3647C15.3811 14.7869 12.6945 14.4372 8.62885 10.3716C4.5632 6.30592 4.21353 3.61956 4.63573 2.08156C4.727 1.76028 4.93902 1.48671 5.22738 1.31817L6.49694 0.556531C6.6722 0.451077 6.89939 0.502193 7.01261 0.6725L8.11246 2.32375L9.03558 3.70829C9.14613 3.87546 9.10981 4.09952 8.9521 4.22322L7.81552 5.10733C7.46963 5.37181 7.37086 5.85036 7.58381 6.23017L7.67406 6.39415C7.99353 6.98006 8.39071 7.70895 9.84074 9.15875C11.2908 10.6085 12.0194 11.0057 12.6051 11.3252L12.7693 11.4157C13.1491 11.6286 13.6277 11.5298 13.8921 11.1839L14.7762 10.0474C14.9 9.88974 15.1239 9.85345 15.2912 9.96388L18.327 11.9886C18.4974 12.1017 18.5485 12.329 18.4429 12.5042Z" fill="#999999"/>
<path d="M12.5 2.50137C14.8457 2.50398 16.7467 4.40498 16.7493 6.75075C16.7493 6.88881 16.8612 7.0007 16.9993 7.0007C17.1373 7.0007 17.2492 6.88881 17.2492 6.75075C17.2463 4.12898 15.1217 2.00434 12.5 2.00146C12.3619 2.00146 12.25 2.11336 12.25 2.25142C12.25 2.38947 12.3619 2.50137 12.5 2.50137Z" fill="#999999"/>
<path d="M12.5 4.00113C14.0178 4.00291 15.2478 5.23291 15.2496 6.75073C15.2496 6.88878 15.3615 7.00068 15.4995 7.00068C15.6376 7.00068 15.7495 6.88878 15.7495 6.75073C15.7474 4.95691 14.2937 3.50327 12.5 3.50122C12.3619 3.50122 12.25 3.61312 12.25 3.75117C12.25 3.88923 12.3619 4.00113 12.5 4.00113Z" fill="#999999"/>
<path d="M12.5 5.50113C13.1899 5.50195 13.7489 6.06102 13.7498 6.75095C13.7498 6.88901 13.8617 7.0009 13.9997 7.0009C14.1378 7.0009 14.2497 6.88901 14.2497 6.75095C14.2486 5.78506 13.4658 5.0023 12.5 5.00122C12.3619 5.00122 12.25 5.11312 12.25 5.25117C12.25 5.38923 12.3619 5.50113 12.5 5.50113Z" fill="#999999"/>
</g>
<defs>
<filter id="filter0_d_6_183" x="0" y="0" width="23" height="23" filterUnits="userSpaceOnUse" color-interpolation-filters="sRGB">
<feFlood flood-opacity="0" result="BackgroundImageFix"/>
<feColorMatrix in="SourceAlpha" type="matrix" values="0 0 0 0 0 0 0 0 0 0 0 0 0 0 0 0 0 0 127 0" result="hardAlpha"/>
<feOffset dy="4"/>
<feGaussianBlur stdDeviation="2"/>
<feComposite in2="hardAlpha" operator="out"/>
<feColorMatrix type="matrix" values="0 0 0 0 0 0 0 0 0 0 0 0 0 0 0 0 0 0 0.25 0"/>
<feBlend mode="normal" in2="BackgroundImageFix" result="effect1_dropShadow_6_183"/>
<feBlend mode="normal" in="SourceGraphic" in2="effect1_dropShadow_6_183" result="shape"/>
</filter>
<clipPath id="clip0_6_183">
<rect width="15" height="15" fill="white" transform="translate(4)"/>
</clipPath>
</defs>
</svg>
